PathFileType	4	(X/Y/Z)	D:\TRACE\spotREDO_2-26-24\spot_justArm_Motion_1_2-platform.trc
DataRate	CameraRate	NumFrames	NumMarkers	Units	OrigDataRate	OrigDataStartFrame	OrigNumFrames
100.00	100.00	      54	5	mm	100.00	6126	      7000
Frame#	Time	Left_Front			Right_Front			Left_Aft			Right_Aft			Post			
		X1	Y1	Z1	X2	Y2	Z2	X3	Y3	Z3	X4	Y4	Z4	X5	Y5	Z5	

6126	61.250	-742.52673	21.61879	-568.66406	672.21094	26.38314	-484.04669	-813.17816	-21.99468	650.13330	756.00964	-15.86015	653.94226	-32.87252	665.72760	-948.57135	
6127	61.260	-743.14587	21.91448	-568.54291	671.84357	26.53934	-483.98135	-813.79889	-22.24368	650.12683	755.31818	-16.22163	653.97565	-33.21350	666.09595	-948.36536	
6128	61.270	-743.54205	21.97976	-568.48749	671.24365	26.79682	-483.97150	-814.18542	-22.38190	650.18024	754.92523	-16.28633	654.10345	-33.58854	666.31677	-948.06372	
6129	61.280	-743.88837	22.11645	-568.42438	670.90955	26.91253	-483.89862	-814.60394	-22.50984	650.18127	754.28699	-16.60070	654.13995	-34.15410	666.56213	-947.71234	
6130	61.290	-744.18787	22.20801	-568.40588	670.63593	27.01783	-483.82346	-815.10834	-22.73347	650.14728	754.02936	-16.77530	654.25220	-34.69749	666.92291	-947.20197	
6131	61.300	-744.79102	22.34500	-568.33527	670.20624	27.25455	-483.71799	-815.58978	-23.02593	650.15826	753.86584	-16.91249	654.33893	-34.86368	667.24896	-946.93542	
6132	61.310	-745.25397	22.44522	-568.32001	669.84943	27.40241	-483.71432	-815.87256	-23.16776	650.18475	753.43457	-17.19249	654.32117	-35.73175	667.43060	-946.56360	
6133	61.320	-745.37085	22.54206	-568.29340	669.50330	27.59488	-483.71487	-816.18390	-23.19470	650.20697	753.09076	-17.32227	654.34393	-35.82705	667.98584	-946.32001	
6134	61.330	-745.65540	22.78421	-568.20020	669.10150	27.73763	-483.60626	-816.50696	-23.23528	650.29346	752.61957	-17.63021	654.31183	-36.27668	668.05133	-946.01685	
6135	61.340	-746.05249	23.12981	-568.10938	668.57770	28.05855	-483.74979	-816.86633	-23.45437	650.29828	752.28882	-17.76008	654.40466	-36.56818	668.19702	-945.77173	
6136	61.350	-746.31122	23.32100	-568.07965	668.29938	28.22973	-483.70627	-817.19910	-23.88588	650.17993	752.12396	-17.85851	654.42810	-36.80168	668.38965	-945.62299	
6137	61.360	-746.55414	23.47455	-568.03040	668.14368	28.30972	-483.66168	-817.33844	-24.03223	650.27533	751.96198	-18.00678	654.44006	-36.94714	668.63007	-945.52167	
6138	61.370	-746.66266	23.57387	-568.01477	668.02893	28.36166	-483.48059	-817.46930	-24.09192	650.29413	751.82361	-18.13952	654.49597	-37.20836	668.83960	-945.47321	
6139	61.380	-746.84589	23.75157	-567.88062	667.98291	28.40038	-483.42661	-817.54669	-24.13035	650.38806	751.62836	-18.31466	654.54950	-37.73468	669.11169	-945.29004	
6140	61.390	-747.00824	23.85926	-567.87378	667.84644	28.45923	-483.40167	-817.72412	-24.31971	650.43878	751.41302	-18.43768	654.63501	-37.99006	669.26794	-945.09216	
6141	61.400	-747.05737	23.87513	-567.85400	667.77441	28.54838	-483.38281	-817.86322	-24.41786	650.46295	751.36816	-18.49434	654.64935	-38.26210	669.52545	-944.96295	
6142	61.410	-747.05640	23.95315	-567.81232	667.71411	28.61350	-483.35251	-817.93695	-24.50090	650.50647	751.26385	-18.61467	654.71674	-38.53531	669.65778	-944.83350	
6143	61.420	-747.04547	24.02036	-567.84149	667.69617	28.65057	-483.37170	-817.94983	-24.55964	650.50867	751.28839	-18.68261	654.77576	-38.54467	669.73755	-944.75903	
6144	61.430	-747.04834	24.10438	-567.83997	667.68848	28.68814	-483.33444	-817.92859	-24.63311	650.52118	751.17993	-18.85343	654.76190	-38.55318	669.81866	-944.67590	
6145	61.440	-747.01575	24.13013	-567.83801	667.70850	28.73693	-483.30966	-817.86609	-24.72856	650.54651	751.21179	-18.93248	654.82648	-38.59472	669.89392	-944.56421	
6146	61.450	-747.03186	24.14407	-567.80585	667.73889	28.72909	-483.27594	-817.87292	-24.77423	650.57837	751.20764	-18.96459	654.82050	-38.54476	670.02344	-944.46375	
6147	61.460	-747.00720	24.19400	-567.81921	667.67560	28.72742	-483.27225	-817.86157	-24.84377	650.56982	751.25165	-18.95216	654.84894	-38.52401	670.13715	-944.36206	
6148	61.470	-747.02209	24.23956	-567.80225	667.73254	28.76977	-483.25134	-817.83881	-24.91449	650.58350	751.19379	-19.02543	654.80469	-38.34940	670.21753	-944.36676	
6149	61.480	-747.06708	24.30368	-567.82526	667.74329	28.79696	-483.17139	-817.82953	-24.89203	650.59882	751.23169	-19.01543	654.82233	-38.21955	670.33759	-944.26147	
6150	61.490	-747.00909	24.31287	-567.77765	667.69208	28.83201	-483.21487	-817.81171	-24.97136	650.60907	751.23303	-19.03944	654.82001	-38.28405	670.36993	-944.23523	
6151	61.500	-746.99176	24.28424	-567.80316	667.70673	28.80972	-483.19510	-817.88098	-24.93278	650.62732	751.21765	-19.06376	654.81519	-38.24724	670.42261	-944.24176	
6152	61.510	-747.06024	24.37637	-567.80212	667.71448	28.84963	-483.17725	-817.96021	-25.14891	650.59973	751.24738	-19.06363	654.82617	-38.23224	670.44867	-944.24933	
6153	61.520	-746.95056	24.38919	-567.81177	667.76526	28.89805	-483.15421	-817.78888	-25.07043	650.61914	751.28174	-19.09786	654.83881	-38.19395	670.51074	-944.20300	
6154	61.530	-746.86780	24.46617	-567.76038	667.87836	29.01375	-483.16827	-817.60681	-25.25293	650.66162	751.39264	-19.15939	654.83960	-38.04163	670.60522	-944.14801	
6155	61.540	-746.66815	24.48549	-567.75494	668.07922	28.96558	-483.06586	-817.38715	-25.28707	650.66235	751.62640	-19.22172	654.80933	-37.74075	670.67316	-944.14417	
6156	61.550	-746.40186	24.51475	-567.69208	668.33112	28.98181	-483.07294	-817.01874	-25.23218	650.66364	752.02490	-19.47668	654.48090	-37.66825	670.78210	-943.97241	
6157	61.560	-746.04126	24.53647	-567.63318	668.62402	28.96779	-483.10486	-816.72253	-25.20540	650.60919	752.31873	-19.43476	654.56970	-36.76453	670.42719	-943.86865	
6158	61.570	-745.67993	24.48723	-567.58319	668.89221	28.97682	-483.17184	-816.50989	-25.19597	650.59485	752.57336	-19.38993	654.42175	-36.29018	670.30090	-943.68011	
6159	61.580	-745.52545	24.49504	-567.64514	669.17151	29.09241	-483.33707	-816.33936	-25.22520	650.60077	752.86700	-19.26636	654.32672	-36.05875	670.20966	-943.66290	
6160	61.590	-745.38068	24.52366	-567.65747	669.54779	29.07689	-483.16595	-816.11334	-25.11136	650.59576	753.21497	-19.26706	654.36664	-36.13390	670.21021	-943.85278	
6161	61.600	-745.19922	24.44870	-567.71277	669.84851	29.04908	-483.24686	-815.84448	-24.93133	650.61127	753.53601	-19.19378	654.40619	-35.73339	670.09613	-943.98657	
6162	61.610	-744.95282	24.30210	-567.74371	669.98724	29.03397	-483.46436	-815.41425	-24.77357	650.64734	753.72150	-18.88077	654.73230	-35.40770	669.97839	-944.22113	
6163	61.620	-744.55823	24.13160	-567.83911	670.28180	28.89473	-483.45981	-815.02893	-24.78531	650.65149	754.06927	-19.14869	654.43036	-35.07706	669.89191	-944.47131	
6164	61.630	-744.07159	24.05891	-567.88715	670.59790	28.97267	-483.42007	-814.79114	-24.76852	650.61371	754.50836	-19.30479	654.38843	-34.91565	669.87714	-944.76166	
6165	61.640	-743.55914	24.08918	-567.85260	671.06915	29.05999	-483.39136	-814.44232	-24.70761	650.54340	754.76715	-19.19997	654.40454	-34.57388	669.77356	-944.98846	
6166	61.650	-743.29883	24.07633	-567.80444	671.56543	29.00778	-483.40433	-814.06641	-24.71349	650.54700	755.15723	-18.97023	654.45386	-34.05627	669.70056	-945.24664	
6167	61.660	-742.96344	24.05090	-567.82739	671.95917	28.74250	-483.25269	-813.46014	-24.60783	650.60687	755.52576	-18.45822	654.71857	-33.58179	669.57446	-945.39771	
6168	61.670	-742.46838	23.79050	-567.80310	672.37311	28.51826	-483.32062	-813.06439	-24.41839	650.60217	756.03375	-18.32469	654.71417	-33.13994	669.36908	-945.55475	
6169	61.680	-741.97473	23.64989	-567.84155	672.90558	28.36622	-483.25546	-812.81085	-24.24582	650.53601	756.40833	-18.20052	654.71747	-32.60159	669.07532	-945.41766	
6170	61.690	-741.62427	23.39915	-567.86078	673.17499	28.45212	-483.43359	-812.44653	-24.13558	650.47369	756.93616	-17.93926	654.64581	-32.24936	668.83948	-945.34979	
6171	61.700	-741.15833	23.23038	-567.91284	673.69849	28.43921	-483.60510	-811.88123	-23.95401	650.46539	757.21454	-18.01930	654.29266	-31.82981	668.57416	-945.27148	
6172	61.710	-740.45355	23.05610	-568.01202	674.23016	28.27590	-483.66611	-811.45081	-23.64729	650.40375	757.61658	-17.93389	654.13745	-31.09546	668.34418	-945.09253	
6173	61.720	-740.12335	23.01967	-568.03436	674.62152	27.89540	-483.63351	-811.04437	-23.26464	650.28754	758.04504	-17.94906	653.96881	-30.58539	668.05414	-945.29419	
6174	61.730	-739.76117	22.95648	-568.10919	675.04431	27.73178	-483.70264	-810.49939	-23.21789	650.15955	758.86011	-17.34306	654.04395	-30.25306	667.91089	-945.67822	
6175	61.740	-739.30475	22.75773	-568.18970	675.44312	27.62042	-483.69836	-810.14404	-22.79113	650.08130	759.34216	-17.09752	654.15399	-29.64189	667.64514	-946.23041	
6176	61.750	-738.64459	22.59829	-568.18542	676.31195	27.30700	-483.77206	-809.58948	-22.81281	649.93671	759.80719	-17.09005	654.17883	-29.44054	667.36072	-946.67120	
6177	61.760	-738.22540	22.58517	-568.16388	676.87347	27.21673	-483.75787	-808.95471	-22.59220	650.04248	760.47119	-17.08419	654.18475	-28.55414	666.93488	-947.13867	
6178	61.770	-737.59924	22.24932	-568.25629	677.17706	27.15020	-483.87463	-808.39453	-22.53476	650.09760	761.02612	-17.23714	654.07782	-27.86327	666.55243	-947.55743	
6179	61.780	-736.97003	21.87683	-568.30377	677.61554	26.96765	-483.89255	-808.03156	-22.37044	650.07477	761.26538	-17.19699	654.01648	-27.70978	666.43445	-947.81134	
